# xmcd CD database file generated by Grip 3.3.1
# 
# Track frame offsets:
#       150
#       22366
#       37012
#       68187
#       80569
#       97303
#       105413
#       132003
#       163372
#       191244
#       222842
#       255800
#       287532
# 
# Disc length: 4257 seconds
# 
# Revision: 1
# Processed by: cddbd v1.5.2PL0 Copyright (c) Steve Scherf et al.
# Submitted via: Grip 3.3.1
# 
DISCID=c0109f0d
DTITLE=Charles-Valentin Alkan, Giovanni Belluci (piano) - Alkan Edition 
DTITLE=CD12
DYEAR=2017
DGENRE=Classical
TTITLE0=I. Allegro moderato, Concerto da camera in A minor Op.10/1, Orche
TTITLE0=stra di padova e del veneto - Roberto Forés Veses
TTITLE1=II. Adagio, Concerto da camera in A minor Op.10/1, Orchestra di p
TTITLE1=adova e del veneto - Roberto Forés Veses
TTITLE2=III. Rondo: Allegro, Concerto da camera in A minor Op.10/1, Orche
TTITLE2=stra di padova e del veneto - Roberto Forés Veses
TTITLE3=I. Allegro moderato, Concerto da camera in C sharp minor Op.10/2,
TTITLE3=Orchestra di padova e del veneto - Roberto Forés Veses
TTITLE4=II. Adagio, Concerto da camera in C sharp minor Op.10/2, Orchestr
TTITLE4=a di padova e del veneto - Roberto Forés Veses
TTITLE5=III. A tempo primo, Concerto da camera in C sharp minor Op.10/2, 
TTITLE5=Orchestra di padova e del veneto - Roberto Forés Veses
TTITLE6=Andante pour piano et cordes avec sourdine, Concerto da camera in
TTITLE6=C sharp Op.10/3, Orchestra di padova e del veneto - Roberto Foré
TTITLE6=s Veses
TTITLE7=I. Mouvement de valse, 3 Scherzi (Études - Caprices) de bravoure
TTITLE7=Op.16 Nos.1-3
TTITLE8=II. Moderato, 3 Scherzi (Études - Caprices) de bravoure Op.16 No
TTITLE8=s.1-3
TTITLE9=III. Prestissimo, 3 Scherzi (Études - Caprices) de bravoure Op.1
TTITLE9=6 Nos.1-3
TTITLE10=Variations sur 'Ah! segnata è la mia morte' Op.16/4
TTITLE11=Variations sur un thème de bellini, 'La tremenda ultrice spada',
TTITLE11=Op.16/5
TTITLE12=Variations quasi-fantaisie sur une barcarolle napolitaine, Op.16/
TTITLE12=6
EXTD=
EXTT0=
EXTT1=
EXTT2=
EXTT3=
EXTT4=
EXTT5=
EXTT6=
EXTT7=
EXTT8=
EXTT9=
EXTT10=
EXTT11=
EXTT12=
PLAYORDER=
